<svg width="512" height="512" viewBox="0 0 512 512" fill="none" xmlns="http://www.w3.org/2000/svg">
<g clip-path="url(#clip0_490_325)">
<path d="M224 362.667C221.192 362.683 218.409 362.145 215.81 361.083C213.211 360.022 210.847 358.457 208.853 356.48C206.854 354.497 205.267 352.137 204.184 349.538C203.101 346.938 202.543 344.15 202.543 341.333C202.543 338.517 203.101 335.729 204.184 333.129C205.267 330.529 206.854 328.17 208.853 326.187L279.467 256L211.627 185.387C207.653 181.39 205.423 175.983 205.423 170.347C205.423 164.711 207.653 159.304 211.627 155.307C213.61 153.307 215.969 151.72 218.569 150.637C221.169 149.554 223.957 148.996 226.773 148.996C229.59 148.996 232.378 149.554 234.978 150.637C237.577 151.72 239.937 153.307 241.92 155.307L324.267 240.64C328.176 244.628 330.365 249.989 330.365 255.573C330.365 261.157 328.176 266.519 324.267 270.507L238.933 355.84C237.019 357.908 234.713 359.576 232.15 360.748C229.587 361.919 226.817 362.572 224 362.667Z" fill="black"/>
</g>
<defs>
<clipPath id="clip0_490_325">
<rect width="512" height="512" fill="white"/>
</clipPath>
</defs>
</svg>
