<svg width="512" height="512" viewBox="0 0 512 512" fill="none" xmlns="http://www.w3.org/2000/svg">
<path d="M285.013 362.667C282.14 362.656 279.298 362.064 276.658 360.928C274.019 359.791 271.636 358.133 269.653 356.053L187.307 270.72C183.398 266.732 181.208 261.371 181.208 255.787C181.208 250.203 183.398 244.841 187.307 240.853L272.64 155.52C274.629 153.531 276.99 151.953 279.589 150.877C282.188 149.8 284.974 149.246 287.787 149.246C290.6 149.246 293.385 149.8 295.984 150.877C298.583 151.953 300.944 153.531 302.933 155.52C304.922 157.509 306.5 159.871 307.577 162.469C308.653 165.068 309.207 167.854 309.207 170.667C309.207 173.48 308.653 176.265 307.577 178.864C306.5 181.463 304.922 183.824 302.933 185.813L232.533 256L300.373 326.4C304.347 330.397 306.577 335.804 306.577 341.44C306.577 347.076 304.347 352.483 300.373 356.48C298.355 358.483 295.956 360.062 293.318 361.124C290.68 362.187 287.857 362.711 285.013 362.667Z" fill="black"/>
</svg>
